<!-- <svg xmlns="http://www.w3.org/2000/svg" viewBox="0 0 680.17 241.34"> -->
<svg xmlns="http://www.w3.org/2000/svg" viewBox="0 0 680.17 241.34">

    <defs>
        <style>.cls-1{fill:#3a3354; background-color:#01D501}</style>
    </defs>
    <title>VectorColor3</title>
        <g id="Calque_2" data-name="Calque 2">
            <g id="Calque_1-2" data-name="Calque 1">
            <path class="cls-1" d="M385.66,171.4a5.59,5.59,0,0,1-4-1.64l-41.61-41.61-41.61,41.61a5.61,5.61,0,0,1-7.93,0L210.45,89.67a5.59,5.59,0,0,1,0-7.93l80.09-80.1a5.61,5.61,0,0,1,7.93,0l41.61,41.61L381.69,1.64a5.62,5.62,0,0,1,7.94,0l80.09,80.1a5.61,5.61,0,0,1,0,7.93l-80.09,80.09A5.58,5.58,0,0,1,385.66,171.4ZM348,120.22l37.64,37.64L457.82,85.7,385.66,13.54,348,51.19l26.44,26.44c1.56-1.55,3.49-3.35,5.7-5.15,8.23-6.73,16-10.14,23.21-10.14A23.39,23.39,0,0,1,426.73,85.7H415.51a12.15,12.15,0,0,0-12.14-12.14c-7.34,0-16,7-21.14,12.14,5.13,5.13,13.8,12.14,21.14,12.14A12.15,12.15,0,0,0,415.51,85.7h11.22a23.39,23.39,0,0,1-23.36,23.36c-7.17,0-15-3.41-23.21-10.14-2.21-1.8-4.14-3.6-5.7-5.14ZM222.35,85.7l72.16,72.16,37.64-37.64L305.71,93.78c-1.56,1.54-3.49,3.34-5.7,5.14-8.24,6.73-16.05,10.14-23.21,10.14a23.36,23.36,0,1,1,0-46.72c7.16,0,15,3.41,23.21,10.14,2.21,1.8,4.14,3.6,5.7,5.15l26.44-26.44L294.51,13.54Zm91.15,0,26.58,26.58L366.67,85.7,340.08,59.12Zm-48.85,0A12.15,12.15,0,0,0,276.8,97.84c7.34,0,16-7,21.14-12.14-5.14-5.12-13.8-12.14-21.14-12.14A12.16,12.16,0,0,0,264.65,85.7Z"/>
            </g>
        </g>
    </svg>