<?xml version="1.0" encoding="UTF-8" standalone="no"?>
<!-- <svg xmlns="http://www.w3.org/2000/svg" viewBox="0 0 680.17 241.34"> -->

<svg
   viewBox="0 0 368.00001 241.34"
   version="1.1"
   id="svg1"
   width="368"
   height="241.34">
  <sodipodi:namedview
     id="namedview1"
     inkscape:zoom="1.9289296"
     inkscape:cx="340.08499"
     inkscape:cy="120.53317"
     inkscape:window-width="1920"
     inkscape:window-height="986"
     inkscape:window-x="-11"
     inkscape:window-y="-11"
     inkscape:window-maximized="1"
     inkscape:current-layer="svg1" />
  <defs
     id="defs1">
    <style
       id="style1">.cls-1{fill:#3a3354; background-color:#01D501}</style>
  </defs>
  <title
     id="title1">VectorColor3</title>
  <g
     id="Calque_2"
     data-name="Calque 2"
     transform="matrix(1.3984451,0,0,1.3992438,-291.49602,1.0376923)">
    <g
       id="Calque_1-2"
       data-name="Calque 1">
      <path
         class="cls-1"
         d="m 385.66,171.4 a 5.59,5.59 0 0 1 -4,-1.64 l -41.61,-41.61 -41.61,41.61 a 5.61,5.61 0 0 1 -7.93,0 L 210.45,89.67 a 5.59,5.59 0 0 1 0,-7.93 l 80.09,-80.1 a 5.61,5.61 0 0 1 7.93,0 l 41.61,41.61 41.61,-41.61 a 5.62,5.62 0 0 1 7.94,0 l 80.09,80.1 a 5.61,5.61 0 0 1 0,7.93 l -80.09,80.09 a 5.58,5.58 0 0 1 -3.97,1.64 z M 348,120.22 385.64,157.86 457.82,85.7 385.66,13.54 348,51.19 374.44,77.63 c 1.56,-1.55 3.49,-3.35 5.7,-5.15 8.23,-6.73 16,-10.14 23.21,-10.14 A 23.39,23.39 0 0 1 426.73,85.7 H 415.51 A 12.15,12.15 0 0 0 403.37,73.56 c -7.34,0 -16,7 -21.14,12.14 5.13,5.13 13.8,12.14 21.14,12.14 A 12.15,12.15 0 0 0 415.51,85.7 h 11.22 a 23.39,23.39 0 0 1 -23.36,23.36 c -7.17,0 -15,-3.41 -23.21,-10.14 -2.21,-1.8 -4.14,-3.6 -5.7,-5.14 z M 222.35,85.7 l 72.16,72.16 37.64,-37.64 -26.44,-26.44 c -1.56,1.54 -3.49,3.34 -5.7,5.14 -8.24,6.73 -16.05,10.14 -23.21,10.14 a 23.36,23.36 0 1 1 0,-46.72 c 7.16,0 15,3.41 23.21,10.14 2.21,1.8 4.14,3.6 5.7,5.15 L 332.15,51.19 294.51,13.54 Z m 91.15,0 26.58,26.58 26.59,-26.58 -26.59,-26.58 z m -48.85,0 a 12.15,12.15 0 0 0 12.15,12.14 c 7.34,0 16,-7 21.14,-12.14 C 292.8,80.58 284.14,73.56 276.8,73.56 A 12.16,12.16 0 0 0 264.65,85.7 Z"
         id="path1" />
    </g>
  </g>
  <metadata
     id="metadata1">
    <rdf:RDF>
      <cc:Work
         rdf:about="">
        <dc:title>VectorColor3</dc:title>
      </cc:Work>
    </rdf:RDF>
  </metadata>
</svg>
